HIERARCHY
ROOT Hips
{
    OFFSET   0.000000   0.000000   0.000000
    CHANNELS 6 Xposition Yposition Zposition Zrotation Xrotation Yrotation
    JOINT Chest
    {
        OFFSET   0.000000   8.007230   0.000000
        CHANNELS 3 Zrotation Xrotation Yrotation
        JOINT Chest2
        {
            OFFSET   0.000000  22.077100   0.000000
            CHANNELS 3 Zrotation Xrotation Yrotation
            JOINT Neck
            {
                OFFSET   0.000000  23.254800  -0.000021
                CHANNELS 3 Zrotation Xrotation Yrotation
                JOINT Head
                {
                    OFFSET   0.000000  14.370000   1.956610
                    CHANNELS 3 Zrotation Xrotation Yrotation
                    End Site
                    {
                        OFFSET   0.000000  19.566000   0.000000
                    }
                }
            }
            JOINT LeftCollar
            {
                OFFSET   3.911900  19.017000  -0.467063
                CHANNELS 3 Zrotation Xrotation Yrotation
                JOINT LeftShoulder
                {
                    OFFSET  10.383700   0.000000   0.000000
                    CHANNELS 3 Zrotation Xrotation Yrotation
                    JOINT LeftElbow
                    {
                        OFFSET  26.662100   0.001529   0.000325
                        CHANNELS 3 Zrotation Xrotation Yrotation
                        JOINT LeftWrist
                        {
                            OFFSET  28.869000  -0.000011  -0.000096
                            CHANNELS 3 Zrotation Xrotation Yrotation
                            JOINT LeftFinger0
                            {
                                OFFSET   2.044650  -2.323460   3.252850
                                CHANNELS 3 Zrotation Xrotation Yrotation
                                JOINT LeftFinger01
                                {
                                    OFFSET   3.088130   0.000000   0.000000
                                    CHANNELS 3 Zrotation Xrotation Yrotation
                                    JOINT LeftFinger02
                                    {
                                        OFFSET   2.639460   0.000000   0.000000
                                        CHANNELS 3 Zrotation Xrotation Yrotation
                                        End Site
                                        {
                                            OFFSET   2.582190   0.000000   0.000000
                                        }
                                    }
                                }
                            }
                            JOINT LeftFinger1
                            {
                                OFFSET   8.364480   0.000000   3.252850
                                CHANNELS 3 Zrotation Xrotation Yrotation
                                JOINT LeftFinger11
                                {
                                    OFFSET   4.646930   0.000000   0.000000
                                    CHANNELS 3 Zrotation Xrotation Yrotation
                                    JOINT LeftFinger12
                                    {
                                        OFFSET   2.323460   0.000000   0.000000
                                        CHANNELS 3 Zrotation Xrotation Yrotation
                                        End Site
                                        {
                                            OFFSET   2.273050   0.000000   0.000000
                                        }
                                    }
                                }
                            }
                            JOINT LeftFinger2
                            {
                                OFFSET   8.364480   0.000016   1.078090
                                CHANNELS 3 Zrotation Xrotation Yrotation
                                JOINT LeftFinger21
                                {
                                    OFFSET   5.111620   0.000000   0.000000
                                    CHANNELS 3 Zrotation Xrotation Yrotation
                                    JOINT LeftFinger22
                                    {
                                        OFFSET   2.788160   0.000017   0.000000
                                        CHANNELS 3 Zrotation Xrotation Yrotation
                                        End Site
                                        {
                                            OFFSET   2.727660   0.000000   0.000000
                                        }
                                    }
                                }
                            }
                            JOINT LeftFinger3
                            {
                                OFFSET   7.899780   0.000015  -1.078090
                                CHANNELS 3 Zrotation Xrotation Yrotation
                                JOINT LeftFinger31
                                {
                                    OFFSET   4.646920   0.000000   0.000000
                                    CHANNELS 3 Zrotation Xrotation Yrotation
                                    JOINT LeftFinger32
                                    {
                                        OFFSET   2.323470   0.000000   0.000000
                                        CHANNELS 3 Zrotation Xrotation Yrotation
                                        End Site
                                        {
                                            OFFSET   2.273050   0.000000   0.000000
                                        }
                                    }
                                }
                            }
                            JOINT LeftFinger4
                            {
                                OFFSET   7.435090   0.000000  -3.252850
                                CHANNELS 3 Zrotation Xrotation Yrotation
                                JOINT LeftFinger41
                                {
                                    OFFSET   3.717550   0.000000   0.000000
                                    CHANNELS 3 Zrotation Xrotation Yrotation
                                    JOINT LeftFinger42
                                    {
                                        OFFSET   1.858760   0.000000   0.000000
                                        CHANNELS 3 Zrotation Xrotation Yrotation
                                        End Site
                                        {
                                            OFFSET   1.818440   0.000000   0.000000
                                        }
                                    }
                                }
                            }
                        }
                    }
                }
            }
            JOINT RightCollar
            {
                OFFSET  -3.911900  19.017000  -0.467062
                CHANNELS 3 Zrotation Xrotation Yrotation
                JOINT RightShoulder
                {
                    OFFSET -10.383700   0.000015   0.000000
                    CHANNELS 3 Zrotation Xrotation Yrotation
                    JOINT RightElbow
                    {
                        OFFSET -26.662100   0.001341   0.000385
                        CHANNELS 3 Zrotation Xrotation Yrotation
                        JOINT RightWrist
                        {
                            OFFSET -28.869000   0.000025  -0.000080
                            CHANNELS 3 Zrotation Xrotation Yrotation
                            JOINT RightFinger0
                            {
                                OFFSET  -2.044650  -2.323490   3.252850
                                CHANNELS 3 Zrotation Xrotation Yrotation
                                JOINT RightFinger01
                                {
                                    OFFSET  -3.088130   0.000000   0.000000
                                    CHANNELS 3 Zrotation Xrotation Yrotation
                                    JOINT RightFinger02
                                    {
                                        OFFSET  -2.639460   0.000000   0.000000
                                        CHANNELS 3 Zrotation Xrotation Yrotation
                                        End Site
                                        {
                                            OFFSET  -2.582190   0.000000   0.000000
                                        }
                                    }
                                }
                            }
                            JOINT RightFinger1
                            {
                                OFFSET  -8.364480   0.000000   3.252850
                                CHANNELS 3 Zrotation Xrotation Yrotation
                                JOINT RightFinger11
                                {
                                    OFFSET  -4.646930   0.000000   0.000000
                                    CHANNELS 3 Zrotation Xrotation Yrotation
                                    JOINT RightFinger12
                                    {
                                        OFFSET  -2.323470   0.000000   0.000000
                                        CHANNELS 3 Zrotation Xrotation Yrotation
                                        End Site
                                        {
                                            OFFSET  -2.273050   0.000000   0.000000
                                        }
                                    }
                                }
                            }
                            JOINT RightFinger2
                            {
                                OFFSET  -8.364480   0.000000   1.078090
                                CHANNELS 3 Zrotation Xrotation Yrotation
                                JOINT RightFinger21
                                {
                                    OFFSET  -5.111610   0.000000   0.000000
                                    CHANNELS 3 Zrotation Xrotation Yrotation
                                    JOINT RightFinger22
                                    {
                                        OFFSET  -2.788160   0.000000   0.000000
                                        CHANNELS 3 Zrotation Xrotation Yrotation
                                        End Site
                                        {
                                            OFFSET  -2.727660   0.000000   0.000000
                                        }
                                    }
                                }
                            }
                            JOINT RightFinger3
                            {
                                OFFSET  -7.899780   0.000000  -1.078090
                                CHANNELS 3 Zrotation Xrotation Yrotation
                                JOINT RightFinger31
                                {
                                    OFFSET  -4.646920   0.000000   0.000000
                                    CHANNELS 3 Zrotation Xrotation Yrotation
                                    JOINT RightFinger32
                                    {
                                        OFFSET  -2.323470   0.000000   0.000000
                                        CHANNELS 3 Zrotation Xrotation Yrotation
                                        End Site
                                        {
                                            OFFSET  -2.273050   0.000000   0.000000
                                        }
                                    }
                                }
                            }
                            JOINT RightFinger4
                            {
                                OFFSET  -7.435090   0.000000  -3.252850
                                CHANNELS 3 Zrotation Xrotation Yrotation
                                JOINT RightFinger41
                                {
                                    OFFSET  -3.717550   0.000000   0.000000
                                    CHANNELS 3 Zrotation Xrotation Yrotation
                                    JOINT RightFinger42
                                    {
                                        OFFSET  -1.858770   0.000000   0.000000
                                        CHANNELS 3 Zrotation Xrotation Yrotation
                                        End Site
                                        {
                                            OFFSET  -1.818440   0.000000   0.000000
                                        }
                                    }
                                }
                            }
                        }
                    }
                }
            }
        }
    }
    JOINT LeftHip
    {
        OFFSET   9.783010   0.000000   0.000000
        CHANNELS 3 Zrotation Xrotation Yrotation
        JOINT LeftKnee
        {
            OFFSET   0.000070 -41.789100   0.000028
            CHANNELS 3 Zrotation Xrotation Yrotation
            JOINT LeftAnkle
            {
                OFFSET   0.000087 -41.133200  -0.000100
                CHANNELS 3 Zrotation Xrotation Yrotation
                JOINT LeftToe
                {
                    OFFSET   0.000000  -6.358960  14.674500
                    CHANNELS 3 Zrotation Xrotation Yrotation
                    End Site
                    {
                        OFFSET   0.000000   0.000000   3.913200
                    }
                }
            }
        }
    }
    JOINT RightHip
    {
        OFFSET  -9.783020   0.000000   0.000000
        CHANNELS 3 Zrotation Xrotation Yrotation
        JOINT RightKnee
        {
            OFFSET   0.000044 -41.789100  -0.000870
            CHANNELS 3 Zrotation Xrotation Yrotation
            JOINT RightAnkle
            {
                OFFSET  -0.000090 -41.133200  -0.000245
                CHANNELS 3 Zrotation Xrotation Yrotation
                JOINT RightToe
                {
                    OFFSET   0.000000  -6.358960  14.674500
                    CHANNELS 3 Zrotation Xrotation Yrotation
                    End Site
                    {
                        OFFSET   0.000000   0.000000   3.913200
                    }
                }
            }
        }
    }
}
MOTION
Frames: 4
Frame Time:   0.016667
 -1.913370  89.997600  -1.376100  -3.169770 -10.686000  -9.708470  -2.527900   8.042830  -2.465010  -4.772490  16.181000  -4.635550  -1.406020   2.404120   0.055848  -2.321500   4.866660  22.016600  -4.658200  -3.077910   6.285260 -67.677300  27.830800 -23.517400   1.074330   5.371070 -74.482900  69.547600 -71.158500  83.199300  41.181400  32.479000 -73.250000   3.457730  -0.005443   0.000315   6.728860  -0.004385  -0.004151 -19.824000   3.623900  -9.945370 -16.477500  -0.001026  -0.004639 -11.534300  -0.000489   0.000075 -23.968600  -0.733983   1.649710 -23.978800  -0.008144  -0.000797 -15.969900   0.004492  -0.000980 -21.462300  -2.761110   6.984700 -21.630600  -0.003085  -0.002367 -14.406000   0.000842  -0.004843 -21.613400  -4.324720  10.775600 -33.031700  -0.005593  -0.001443 -21.999100  -0.002023  -0.003618   8.497980   0.678166  11.167300  52.356000   3.736480  35.008800 -20.417500 -20.152300  86.083600  29.253600  46.392800 -22.059400 -34.989900  29.277500  73.587800  19.163500   0.031321  -0.010851   4.581780   0.015583   0.001288  17.951900   0.722658   2.179190  14.699300   0.008623   0.000931  10.289500   0.004405   0.000188  13.530000   0.555532   2.228330  13.541000   0.018622   0.002404   9.018300   0.005588  -0.000635  14.064000   0.579617   2.222870  14.075500   0.022240  -0.003296   9.374290   0.013828  -0.003293  22.904200   0.894846   2.053950  34.382200   0.027179  -0.029956  22.898500   0.006045  -0.025369   2.574450  12.345700   5.609720   0.112401   2.176660  17.776800  -6.197040  -4.970490   7.062100  -0.000000   0.000000   0.000000   2.496450  10.337000 -10.302800  -0.068143   2.507900  -6.076180  -9.965150   0.467425   6.041470  -0.000000   0.000000   0.000000
 -1.941660  90.005100  -1.386150  -3.014700 -10.747800  -9.020720  -2.640570   8.019820  -2.303400  -5.025580  16.132500  -4.291680  -1.405880   2.358910   0.055755  -2.324540   4.775100  21.771800  -4.685810  -3.232770   6.243920 -67.832600  27.682400 -22.828300   1.051190   5.693630 -74.552000  69.416100 -71.007000  83.049700  41.126400  32.494600 -73.288800   3.389280  -0.005297   0.000363   6.694640  -0.004270  -0.004118 -19.861600   3.622130  -9.926320 -16.508300  -0.001060  -0.004814 -11.555800  -0.000532   0.000072 -24.023800  -0.734286   1.649860 -24.034300  -0.007882  -0.001234 -16.006900   0.004372  -0.001126 -21.502500  -2.765020   6.985680 -21.671700  -0.003031  -0.002797 -14.433400   0.000860  -0.004984 -21.652100  -4.325650  10.764200 -33.093600  -0.005500  -0.001416 -22.040400  -0.002045  -0.003639   8.511180   0.612658  11.290600  50.555600   5.072140  35.372500 -19.949100 -19.641600  85.903000  32.324000  43.843200 -24.003800 -36.385000  30.248400  74.055800  18.164300   0.009520  -0.002711   4.082180   0.004677   0.001287  17.290100   0.688956   2.153310  14.157200   0.008225   0.001126   9.910030   0.004620   0.000333  12.838800   0.519584   2.200460  12.849000   0.012356   0.002326   8.557430   0.004527  -0.000636  13.291900   0.538079   2.196120  13.301500   0.011520  -0.002368   8.858830   0.007259  -0.002351  22.008600   0.847307   2.036490  33.036400   0.016090  -0.017062  22.002200   0.003322  -0.015012   2.579790  12.263600   5.488200   0.149594   2.207130  17.393400  -6.220020  -4.898130   6.891400   0.000000   0.000000   0.000000   2.500480  10.397500 -10.328000  -0.048240   2.517550  -6.343050  -9.983980   0.453435   5.641980   0.000000   0.000000   0.000000
 -1.966020  90.009400  -1.394300  -2.848900 -10.804000  -8.296140  -2.743860   7.995280  -2.144800  -5.259030  16.080100  -3.955510  -1.405210   2.313750   0.055467  -2.319980   4.683840  21.486700  -4.723220  -3.370040   6.202900 -67.884900  27.663100 -22.240900   0.984681   5.885280 -74.580700  69.177300 -70.850600  82.799100  41.112200  32.482400 -73.303900   3.243630  -0.005157   0.000412   6.621830  -0.004157  -0.004087 -19.879800   3.612010  -9.882630 -16.521000  -0.001092  -0.004984 -11.564700  -0.000568   0.000069 -24.036400  -0.736413   1.650870 -24.047000  -0.007615  -0.001673 -16.015300   0.004242  -0.001279 -21.516900  -2.771830   6.992430 -21.686000  -0.002971  -0.003223 -14.442900   0.000883  -0.005133 -21.666600  -4.331030  10.762600 -33.112100  -0.005398  -0.001398 -22.052700  -0.002054  -0.003663   8.527370   0.583061  11.401600  48.844000   6.488660  35.656700 -19.818800 -19.245100  85.515400  34.233100  41.640900 -24.982900 -36.926400  30.893400  74.111900  17.541600   0.002660  -0.000895   3.770830   0.001316   0.001284  16.555700   0.621328   2.059690  13.554900   0.007432   0.001310   9.488470   0.004740   0.000467  12.185400   0.456394   2.102070  12.194000   0.004870   0.002242   8.121200   0.003059  -0.000637  12.691700   0.469179   2.098880  12.700400   0.000000  -0.001737   8.458480   0.000098  -0.001714  21.235300   0.762854   1.961660  31.872700   0.002822  -0.003062  21.227200   0.001064  -0.002558   2.570080  12.169300   5.342090   0.189249   2.242730  16.997200  -6.241450  -4.827930   6.723440  -0.000000   0.000000  -0.000000   2.497380  10.455400 -10.353500  -0.024726   2.524850  -6.646200 -10.002200   0.435557   5.243270  -0.000000   0.000000  -0.000000
 -1.987460  90.011700  -1.404670  -2.681870 -10.848600  -7.552300  -2.833980   7.969980  -1.978080  -5.466770  16.024900  -3.604960  -1.398300   2.267780   0.054754  -2.308090   4.591150  21.137600  -4.769970  -3.483280   6.153340 -67.830100  27.777600 -21.779600   0.914812   5.928480 -74.565900  69.006300 -70.671600  82.684200  41.059400  32.397300 -73.234300   3.033830  -0.005027   0.000411   6.516930  -0.004048  -0.004051 -19.872400   3.580360  -9.803150 -16.509800  -0.001119  -0.005151 -11.556900  -0.000598   0.000070 -24.013400  -0.756213   1.694020 -24.024400  -0.007342  -0.002117 -16.000200   0.004103  -0.001431 -21.497000  -2.779540   7.016410 -21.667000  -0.002905  -0.003651 -14.430300   0.000911  -0.005288 -21.662900  -4.349560  10.802300 -33.111300  -0.005285  -0.001392 -22.052200  -0.002057  -0.003689   8.567500   0.583187  11.459400  47.409000   7.788920  35.828500 -19.684600 -18.839600  85.192600  35.411500  39.900400 -25.532300 -37.539100  31.267700  74.043200  17.260700   0.001923  -0.000711   3.630370   0.000996   0.001279  15.901100   0.536048   1.862470  13.016900   0.005437   0.001490   9.111860   0.004767   0.000592  11.762700   0.395199   1.897110  11.769800   0.002843   0.002142   7.838670   0.002571  -0.000648  12.535500   0.412223   1.893110  12.543800  -0.000817  -0.001437   8.354140  -0.000515  -0.001446  20.890600   0.680514   1.794000  31.352600  -0.001534  -0.000341  20.880900   0.000460   0.001224   2.565900  12.057500   5.191660   0.231095   2.284720  16.580800  -6.261620  -4.761600   6.560890   0.000000   0.000000  -0.000000   2.500090  10.506000 -10.394400   0.000578   2.527760  -6.960840 -10.024100   0.417120   4.851880   0.000000   0.000000  -0.000000
